<svg id="Layer_1" data-name="Layer 1" xmlns="http://www.w3.org/2000/svg" viewBox="0 0 149 123.5"><defs><style>.cls-1,.cls-2{fill:#3fa9f5;stroke:#3fa9f5;stroke-miterlimit:10;}.cls-1{stroke-width:0.5px;}.cls-2{stroke-linecap:round;stroke-width:7px;}</style></defs><title>logo2</title><path class="cls-1" d="M39,53.29a17.79,17.79,0,0,1,5.07-.7c2.89,0,5.15.62,6.78,2.79C52.36,57.29,53,60.26,53,63.31,53,67.24,52.2,70,50.9,72a7.45,7.45,0,0,1-6.06,3.47c-.33,0-.65,0-1,0V89H39Zm4.83,16.46a3.49,3.49,0,0,0,.81.07c2.44,0,3.53-2.53,3.53-5.91,0-3.15-.89-5.65-3.14-5.65a2.69,2.69,0,0,0-1.2.27Z" transform="translate(-0.5 -12)"/><path class="cls-1" d="M58.33,80.69,57.23,89h-4.7l5.41-36.2h5.81L68.6,89H63.88l-1.07-8.26Zm4.06-5.47-.84-7.57c-.24-2.2-.57-5.84-.82-8.23h-.08c-.27,2.4-.64,6.14-.9,8.24l-.92,7.56Z" transform="translate(-0.5 -12)"/><path class="cls-1" d="M71.33,53.29a19.51,19.51,0,0,1,5.29-.7c2.66,0,5,.56,6.65,2.69s2,4.43,2,7.53c0,3.88-1.3,7.34-3.84,9V72c1.69,1,2.55,3.27,3,7.18A80.55,80.55,0,0,0,86,89H81a64.14,64.14,0,0,1-1.26-8.66c-.42-4.5-1.21-5.77-2.82-5.77h-.73V89H71.33Zm4.83,15.8H77c2.11,0,3.31-2.49,3.31-5.63s-.85-5.28-3-5.37a2.57,2.57,0,0,0-1.18.22Z" transform="translate(-0.5 -12)"/><path class="cls-1" d="M91.31,59.27h-4.4V52.75h13.68v6.52H96.17V89H91.31Z" transform="translate(-0.5 -12)"/><path class="cls-1" d="M107.2,89V75.1l-5.49-22.35h5.18l1.7,8.63c.47,2.33.93,5,1.3,7.68H110c.31-2.61.71-5.24,1.17-7.84l1.46-8.47h5l-5.57,22.08V89Z" transform="translate(-0.5 -12)"/><path class="cls-1" d="M42.94,93.93v12.56h4.38V93.93h4.2v31.31h-4.2V112.13H42.94v13.11h-4.2V93.93Z" transform="translate(-0.5 -12)"/><path class="cls-1" d="M68,109c0,11.8-2.89,16.57-7,16.57-4.87,0-6.8-7.5-6.8-16.1s2.34-16,7.11-16C66.49,93.56,68,101.87,68,109Zm-9.42.55c0,7.1.91,10.73,2.61,10.73s2.45-4.66,2.45-11c0-5.52-.58-10.48-2.48-10.48C59.45,98.85,58.54,102.87,58.54,109.59Z" transform="translate(-0.5 -12)"/><path class="cls-1" d="M74.7,93.93v20.34c0,4.6.93,6,2,6s2.06-1.26,2.06-6V93.93H83V113.2c0,8.06-2.11,12.41-6.26,12.41-4.51,0-6.27-4.53-6.27-12.35V93.93Z" transform="translate(-0.5 -12)"/><path class="cls-1" d="M86.12,119a6.11,6.11,0,0,0,3.55,1.23c2,0,3-1.49,3-3.56,0-2.23-1-3.38-2.8-5.07a11.67,11.67,0,0,1-4.06-8.75c0-5,2.29-9.19,6.81-9.19A5.54,5.54,0,0,1,96,94.78L95.3,100A4,4,0,0,0,92.56,99c-1.8,0-2.66,1.58-2.66,3.23,0,1.88.65,2.87,3,4.9a11.34,11.34,0,0,1,3.9,8.94c0,5.75-2.91,9.5-7.12,9.5a7,7,0,0,1-4.14-1.26Z" transform="translate(-0.5 -12)"/><path class="cls-1" d="M108.34,111.47h-4.91V120H109v5.28H99.23V93.93h9.38v5.29h-5.18v7.19h4.91Z" transform="translate(-0.5 -12)"/><path class="cls-1" d="M111.18,122.43c0-1.87.89-3.19,2.08-3.19s2,1.26,2.06,3.19-.83,3.16-2.07,3.16S111.18,124.29,111.18,122.43Z" transform="translate(-0.5 -12)"/><path class="cls-1" d="M119.58,111h-3.25v-3.32h9.29V111h-3.3v14.2h-2.74Z" transform="translate(-0.5 -12)"/><path class="cls-1" d="M130.41,125.24l-3.87-17.52h3l1.46,7.41c.42,2.09.79,4.07,1.09,6.26h0c.3-2.11.69-4.19,1.11-6.19l1.53-7.48h2.9l-4.06,17.52Z" transform="translate(-0.5 -12)"/><line class="cls-2" x1="29" y1="120" x2="23.5" y2="56.5"/><line class="cls-2" x1="23.5" y1="56.5" x2="3.5" y2="56.5"/><line class="cls-2" x1="3.5" y1="56.5" x2="73.5" y2="3.5"/><line class="cls-2" x1="145.5" y1="51.5" x2="73.5" y2="3.5"/><line class="cls-2" x1="128.5" y1="52.5" x2="145.5" y2="51.5"/><line class="cls-2" x1="130.5" y1="88.5" x2="128.5" y2="52.5"/></svg>